<?xml version="1.0" standalone="no"?>
<!DOCTYPE svg PUBLIC "-//W3C//DTD SVG 20010904//EN"
 "http://www.w3.org/TR/2001/REC-SVG-20010904/DTD/svg10.dtd">
<svg version="1.0" xmlns="http://www.w3.org/2000/svg"
 width="385.000000pt" height="224.000000pt" viewBox="0 0 385.000000 224.000000"
 preserveAspectRatio="xMidYMid meet">

<g transform="translate(0.000000,224.000000) scale(0.100000,-0.100000)"
fill="#000000" stroke="none">
<path d="M593 2168 c-14 -22 -530 -2037 -524 -2047 10 -14 162 -44 173 -33 10
10 528 2005 528 2034 0 11 -10 20 -27 24 -46 10 -107 25 -125 30 -9 3 -20 -1
-25 -8z"/>
<path d="M1717 1916 c-20 -7 -45 -20 -54 -27 -25 -21 -52 -89 -59 -152 -6 -51
-9 -57 -30 -57 -28 0 -33 -7 -40 -64 -7 -45 -6 -46 20 -46 21 0 26 -5 26 -25
0 -24 -34 -337 -45 -423 l-6 -43 63 3 63 3 23 235 c12 129 25 241 27 248 3 7
24 12 59 12 l55 0 9 43 c5 23 7 45 5 50 -2 4 -29 7 -59 7 -54 0 -54 0 -54 30
0 17 6 46 14 65 17 41 49 52 106 37 22 -5 42 -6 45 -2 13 21 17 98 5 105 -24
15 -134 16 -173 1z"/>
<path d="M1345 1855 c-34 -33 -33 -77 2 -105 33 -26 68 -20 101 16 27 31 28
54 1 88 -27 34 -71 35 -104 1z"/>
<path d="M905 1838 c-5 -14 -85 -711 -85 -742 0 -18 6 -19 157 -13 86 4 160
10 164 14 4 5 9 33 11 63 l3 55 -97 -4 -98 -3 1 28 c0 16 15 158 33 317 18
158 30 290 27 292 -11 11 -112 4 -116 -7z"/>
<path d="M1325 1670 c-8 -13 -72 -579 -66 -585 11 -11 112 -4 116 8 4 12 65
547 65 573 0 17 -105 20 -115 4z"/>
<path d="M2022 1663 c-90 -44 -136 -159 -137 -343 0 -96 3 -122 20 -154 27
-54 66 -79 128 -86 48 -5 144 3 154 14 2 2 7 30 10 62 6 57 6 57 -18 50 -13
-4 -49 -10 -80 -13 -52 -5 -57 -3 -77 22 -15 19 -22 42 -22 71 l0 44 119 0
c89 0 121 3 130 14 7 8 12 56 13 117 1 89 -1 110 -20 146 -12 24 -35 49 -52
58 -38 20 -126 19 -168 -2z m103 -97 c24 -17 35 -124 14 -137 -8 -5 -42 -9
-76 -9 l-61 0 13 55 c13 59 28 83 60 95 28 12 29 12 50 -4z"/>
<path d="M2536 888 c-10 -56 -86 -755 -86 -784 l0 -27 57 7 c31 4 58 8 59 9 2
1 8 52 14 112 19 176 20 177 69 34 61 -173 52 -163 119 -155 31 4 57 8 59 10
2 2 -21 70 -52 152 -30 82 -55 153 -55 157 0 4 34 67 75 138 41 72 75 133 75
135 0 2 -29 4 -65 4 l-65 0 -64 -127 c-43 -85 -65 -120 -65 -103 -1 14 10 122
24 240 14 117 25 218 25 222 0 4 -27 8 -60 8 -59 0 -59 0 -64 -32z"/>
<path d="M795 851 l-60 -6 -8 -54 c-4 -30 -5 -56 -2 -59 3 -3 28 -5 55 -3 30
1 50 -2 50 -8 0 -6 -16 -150 -36 -322 -19 -171 -33 -313 -30 -317 3 -3 32 -1
63 4 l58 9 36 315 c21 173 38 316 38 318 1 1 21 2 45 2 53 0 61 10 70 78 l7
52 -113 -2 c-62 -1 -140 -4 -173 -7z"/>
<path d="M1345 674 c-16 -8 -37 -22 -46 -30 -23 -21 -30 -17 -23 11 6 25 5 25
-55 25 -55 0 -61 -2 -66 -22 -14 -66 -64 -563 -56 -571 4 -4 31 -5 60 -1 41 5
52 11 56 28 4 22 45 393 45 412 0 19 49 34 111 34 67 0 70 3 72 77 l2 48 -35
3 c-19 1 -48 -5 -65 -14z"/>
<path d="M1635 678 c-93 -51 -142 -199 -133 -403 4 -114 21 -155 74 -180 53
-25 92 -19 130 19 l34 34 0 -35 0 -36 57 7 c31 4 58 8 59 9 3 3 64 544 64 568
0 17 -8 19 -59 19 l-60 0 -3 -37 -3 -38 -19 32 c-30 49 -93 68 -141 41z m119
-130 c27 -38 17 -227 -16 -311 -14 -36 -40 -50 -71 -38 -45 17 -57 90 -36 224
16 100 41 147 79 147 19 0 34 -8 44 -22z"/>
<path d="M2182 679 c-57 -17 -108 -79 -134 -161 -32 -101 -33 -293 -3 -352 34
-67 63 -81 166 -81 48 0 93 5 99 11 6 6 13 34 17 64 l6 53 -29 -7 c-16 -4 -50
-9 -75 -13 -43 -5 -49 -3 -64 21 -10 14 -20 47 -23 71 -6 58 14 187 38 242 22
51 49 60 120 42 27 -7 52 -10 55 -7 12 12 17 105 6 112 -19 12 -145 16 -179 5z"/>
<path d="M3105 675 c-54 -19 -112 -85 -130 -149 -36 -124 -40 -278 -9 -352 18
-42 66 -82 110 -90 48 -9 155 3 170 19 7 6 14 32 15 57 4 50 1 51 -83 35 -57
-11 -87 1 -104 40 -8 19 -14 48 -14 64 l0 29 108 7 c59 3 116 7 127 8 15 1 22
12 27 42 11 61 8 166 -5 203 -32 88 -114 122 -212 87z m95 -114 c5 -11 10 -44
10 -74 l0 -55 -67 -4 c-38 -2 -70 -2 -72 -1 -10 7 22 112 40 132 25 27 74 28
89 2z"/>
<path d="M3691 680 c-13 -6 -36 -19 -52 -31 l-29 -20 0 25 c0 25 -2 26 -60 26
-41 0 -60 -4 -60 -12 0 -7 -14 -128 -30 -268 -16 -140 -30 -270 -30 -289 l0
-33 58 7 c31 4 58 8 59 8 0 1 12 98 24 216 13 117 29 221 35 229 9 12 33 18
88 20 85 5 91 10 84 88 -3 35 -6 39 -33 41 -16 1 -41 -2 -54 -7z"/>
</g>
</svg>
